<svg width="465" height="97" viewBox="0 0 465 97" fill="none" xmlns="http://www.w3.org/2000/svg">
<g clip-path="url(#clip0_7854_71426)">
<path d="M12.2633 26.172C22.5293 26.172 28.2936 27.8692 31.6155 31.4188C33.9129 33.8508 35.0927 37.2451 35.0927 41.7675C35.0927 47.1592 33.7577 51.1435 30.8807 53.8031C27.476 56.9078 22.3844 58.3152 13.7432 58.3152H11.3734V77.0671H-0.0102539V26.172H12.2633ZM11.3734 51.5057H14.5504C20.9046 51.5057 23.6366 49.5912 23.6366 42.2746C23.6366 35.4031 21.2771 33.0436 14.5504 33.0436H11.3734V51.5057Z" fill="white"/>
<path d="M49.8394 44.3444C50.9009 43.0358 52.2397 41.9793 53.7591 41.2509C55.2784 40.5225 56.9406 40.1405 58.6255 40.1324C60.2374 40.1382 61.819 40.5702 63.21 41.3846L62.1751 48.2562C60.7461 47.6716 59.2174 47.3693 57.6734 47.3662C55.1582 47.3692 52.7248 48.2597 50.8019 49.8809C51.0233 52.3617 51.12 54.852 51.0916 57.3424V77.0671H40.4531V41.0224H48.8045C49.1771 42.0469 49.5393 43.1646 49.8394 44.3444Z" fill="white"/>
<path d="M83.9384 40.1221C95.6842 40.1221 102.483 47.6559 102.483 59.0292C102.483 70.4025 95.6842 77.9467 83.9384 77.9467C72.1926 77.9467 65.4038 70.4128 65.4038 59.0292C65.4038 47.6456 72.2029 40.1221 83.9384 40.1221ZM83.9384 72.2549C88.7402 72.2549 91.5551 68.6328 91.5551 59.0292C91.5551 49.4256 88.7402 45.8139 83.9384 45.8139C79.1366 45.8139 76.3321 49.4256 76.3321 59.0292C76.3321 68.6328 79.1469 72.2653 83.9384 72.2653V72.2549Z" fill="white"/>
<path d="M165.052 61.1093H144.738C144.738 67.4635 147.842 71.5305 154.486 71.6754C158.214 71.6154 161.86 70.5692 165.052 68.6432L166.16 74.1074C162.248 76.7044 157.638 78.0474 152.944 77.9571C147.47 77.9571 142.378 76.3323 139.056 73.0725C135.734 69.8126 133.882 65.1764 133.882 59.0396C133.882 47.1489 141.343 40.1324 152.054 40.1324C161.43 40.1324 168.084 45.8243 168.084 57.0423C168.053 60.6643 167.567 61.1093 165.052 61.1093ZM158.553 55.5728V54.3102C158.553 48.2562 155.821 45.4517 152.127 45.4517C147.77 45.4517 144.665 48.1113 144.665 55.5728H158.553Z" fill="white"/>
<path d="M202.576 49.1462C199.85 47.3721 196.67 46.4234 193.418 46.4141C187.809 46.4141 184.187 50.2535 184.187 59.112C184.187 67.9705 187.136 71.6754 193.79 71.6754C197.03 71.5654 200.196 70.6781 203.021 69.0882L204.056 74.5523C200.263 76.8255 195.915 78.0039 191.493 77.9571C179.675 77.9571 173.248 70.3404 173.248 59.1845C173.248 47.2213 180.71 40.1324 191.565 40.1324C195.816 40.0461 199.992 41.2553 203.539 43.5992L202.576 49.1462Z" fill="white"/>
<path d="M130.156 70.8061C128.635 71.3688 127.028 71.6629 125.406 71.6754C122.363 71.6754 121.329 69.9472 121.329 65.8077V46.6314H130.549V41.0224H121.329V29.6388L110.69 30.9738V41.0224H104.926V46.6314H110.69V65.5903C110.69 72.8344 113.795 77.9571 122.074 77.9571C125.065 77.9325 128.028 77.3826 130.829 76.3323L130.156 70.8061Z" fill="white"/>
<path d="M232.557 70.8061C231.04 71.3696 229.436 71.6638 227.817 71.6754C224.775 71.6754 223.74 69.9472 223.74 65.8077V46.6314H232.961V41.0224H223.74V29.6388L213.101 30.9738V41.0224H207.378V46.6314H213.153V65.5903C213.153 72.8344 216.258 77.9571 224.537 77.9571C227.513 77.93 230.462 77.3836 233.25 76.3427L232.557 70.8061Z" fill="white"/>
<path d="M244.251 25.7994C245.292 25.8541 246.294 26.2127 247.133 26.831C247.972 27.4493 248.611 28.3001 248.972 29.2781C249.333 30.2561 249.398 31.3183 249.161 32.3333C248.924 33.3484 248.395 34.2716 247.639 34.9889C246.882 35.7061 245.932 36.1858 244.906 36.3687C243.88 36.5515 242.823 36.4294 241.865 36.0176C240.908 35.6057 240.092 34.9221 239.519 34.0514C238.946 33.1806 238.641 32.161 238.642 31.1187C238.63 30.392 238.769 29.6708 239.051 29.0009C239.332 28.3309 239.75 27.7267 240.277 27.2266C240.805 26.7265 241.43 26.3414 242.114 26.0957C242.798 25.8501 243.526 25.7492 244.251 25.7994ZM249.57 41.0224V77.0671H238.932V41.0224H249.57Z" fill="white"/>
<path d="M265.414 41.0224L274.128 65.4661L282.697 41.0224H289.413L275.753 77.0671H268.508L253.948 41.0224H265.414Z" fill="white"/>
<path d="M321.805 61.1093H301.49C301.49 67.4635 304.595 71.5305 311.239 71.6754C314.967 71.6154 318.612 70.5692 321.805 68.6432L322.912 74.1074C318.998 76.7058 314.384 78.0488 309.686 77.9571C304.222 77.9571 299.131 76.3323 295.809 73.0725C292.487 69.8126 290.634 65.1764 290.634 59.0396C290.634 47.1489 298.096 40.1324 308.807 40.1324C318.183 40.1324 324.837 45.8243 324.837 57.0423C324.837 60.6643 324.319 61.1093 321.805 61.1093ZM315.306 55.5728V54.3102C315.306 48.2562 312.574 45.4517 308.879 45.4517C304.522 45.4517 301.418 48.1113 301.418 55.5728H315.306Z" fill="white"/>
<path d="M381.806 31.16C362.413 31.16 352.892 48.1009 350.584 73.5278C350.543 73.976 350.595 74.4279 350.737 74.8548C350.88 75.2817 351.11 75.6741 351.413 76.0072C351.716 76.3402 352.085 76.6064 352.496 76.7889C352.908 76.9714 353.353 77.0661 353.803 77.0671H361.575C362.516 53.4409 367.287 36.3344 381.827 36.3344C398.323 36.3344 402.328 58.3772 402.328 86.888H410.296C410.725 86.8881 411.149 86.8029 411.544 86.6374C411.939 86.4719 412.298 86.2294 412.598 85.9241C412.899 85.6188 413.135 85.2567 413.294 84.859C413.454 84.4612 413.532 84.0358 413.525 83.6075C412.904 52.6751 403.663 31.16 381.806 31.16Z" fill="white"/>
<path d="M381.806 0C374.045 0 368.353 5.7953 368.353 13.7017C368.353 21.6082 374.024 27.4035 381.806 27.4035C389.589 27.4035 395.26 21.6082 395.26 13.7017C395.26 5.7953 389.568 0 381.806 0ZM381.806 23.1501C378.112 23.1501 375.597 20.0455 375.597 13.7017C375.597 7.35796 378.143 4.26369 381.806 4.26369C385.47 4.26369 388.016 7.36831 388.016 13.7017C388.016 20.0352 385.501 23.1501 381.806 23.1501Z" fill="white"/>
<path d="M427.103 8.91028C419.341 8.91028 413.649 14.6952 413.649 22.612C413.649 30.5288 419.321 36.3138 427.103 36.3138C434.885 36.3138 440.556 30.5185 440.556 22.612C440.556 14.7056 434.864 8.91028 427.103 8.91028ZM427.103 32.0501C423.408 32.0501 420.894 28.9454 420.894 22.612C420.894 16.2786 423.439 13.1636 427.103 13.1636C430.766 13.1636 433.312 16.2682 433.312 22.612C433.312 28.9558 430.797 32.0501 427.103 32.0501Z" fill="white"/>
<path d="M394.214 96.709C392.393 69.14 404.563 45.2344 427.103 45.2344C437.182 45.2344 442.626 51.9196 442.626 60.3228C442.626 68.726 436.903 77.0671 420.128 77.0671L420.397 83.8352C420.41 84.262 420.508 84.6819 420.686 85.0702C420.863 85.4586 421.117 85.8076 421.431 86.0967C421.745 86.3859 422.114 86.6094 422.516 86.7542C422.917 86.8989 423.344 86.962 423.77 86.9398C443.754 85.9049 453.192 74.8939 453.192 62.5892C453.192 49.6947 442.647 40.0807 427.113 40.0807C400.403 40.0807 381.993 61.8131 382.841 93.563C382.86 94.4067 383.209 95.2095 383.812 95.7994C384.416 96.3894 385.226 96.7196 386.07 96.7194L394.214 96.709Z" fill="white"/>
<path d="M460.923 78.2158C460.127 78.2076 459.351 77.9642 458.693 77.5163C458.035 77.0683 457.524 76.4358 457.225 75.6982C456.925 74.9606 456.851 74.151 457.01 73.3711C457.17 72.5912 457.556 71.8759 458.121 71.3152C458.686 70.7545 459.405 70.3734 460.186 70.2198C460.967 70.0662 461.776 70.1471 462.511 70.4521C463.246 70.7572 463.875 71.2729 464.318 71.9343C464.761 72.5957 464.998 73.3734 465 74.1694C464.995 75.2463 464.562 76.277 463.798 77.0356C463.034 77.7941 462 78.2185 460.923 78.2158ZM460.923 71.0752C460.309 71.0752 459.709 71.2572 459.198 71.5984C458.687 71.9395 458.29 72.4244 458.055 72.9917C457.82 73.559 457.758 74.1832 457.878 74.7855C457.998 75.3877 458.293 75.9409 458.728 76.3751C459.162 76.8093 459.715 77.105 460.317 77.2247C460.919 77.3445 461.544 77.2831 462.111 77.0481C462.678 76.8131 463.163 76.4152 463.504 75.9046C463.845 75.3941 464.027 74.7938 464.027 74.1798C464.037 73.7694 463.964 73.3612 463.811 72.9801C463.659 72.5989 463.431 72.2527 463.14 71.9624C462.85 71.6721 462.504 71.4438 462.123 71.2912C461.741 71.1387 461.333 71.0652 460.923 71.0752ZM462.517 75.9701C462.599 76.084 462.517 76.1564 462.434 76.1564H461.896C461.85 76.1613 461.803 76.1521 461.762 76.1299C461.722 76.1077 461.689 76.0736 461.668 76.0322L460.871 74.7283H460.478V76.0012C460.478 76.1047 460.478 76.1564 460.323 76.1564H459.888C459.774 76.1564 459.733 76.1047 459.733 76.0012V72.3894C459.733 72.2653 459.733 72.2032 459.888 72.2032H460.385C460.926 72.1241 461.478 72.2337 461.947 72.5136C462.087 72.6202 462.198 72.7607 462.269 72.9218C462.339 73.083 462.368 73.2595 462.351 73.4347C462.36 73.6728 462.298 73.9083 462.172 74.111C462.047 74.3137 461.864 74.4746 461.647 74.573L462.517 75.9701ZM460.737 72.8137H460.478V74.128H460.705C461.233 74.128 461.513 73.9314 461.513 73.4554C461.513 72.9793 461.213 72.8137 460.737 72.8137Z" fill="white"/>
</g>
<defs>
<clipPath id="clip0_7854_71426">
<rect width="465" height="96.709" fill="white"/>
</clipPath>
</defs>
</svg>
